<?xml version="1.0" standalone="no"?>
<!DOCTYPE svg PUBLIC "-//W3C//DTD SVG 20010904//EN"
 "http://www.w3.org/TR/2001/REC-SVG-20010904/DTD/svg10.dtd">
<svg version="1.0" xmlns="http://www.w3.org/2000/svg"
 width="1280.000000pt" height="314.000000pt" viewBox="0 0 1280.000000 314.000000"
 preserveAspectRatio="xMidYMid meet">

<g transform="translate(0.000000,314.000000) scale(0.100000,-0.100000)"
fill="#000000" stroke="none">
<path d="M2545 2670 c-110 -24 -156 -40 -265 -96 -208 -106 -386 -304 -473
-524 -200 -509 25 -1080 517 -1311 257 -120 576 -122 842 -4 149 66 323 213
415 351 134 199 188 395 176 638 -21 449 -325 821 -765 938 -115 30 -328 34
-447 8z m357 -174 c41 -8 110 -28 154 -45 86 -33 191 -99 178 -110 -5 -4 -52
-33 -104 -64 -238 -141 -434 -347 -565 -594 -40 -76 -135 -190 -212 -256 -70
-61 -194 -139 -277 -175 l-48 -22 -34 76 c-58 125 -77 211 -78 359 -1 185 35
311 131 460 187 288 524 434 855 371z m590 -443 c55 -102 81 -208 86 -353 3
-113 1 -149 -17 -223 -76 -318 -315 -556 -637 -633 -151 -36 -360 -15 -509 51
-66 29 -155 83 -155 94 0 4 17 15 38 25 81 38 239 153 317 230 88 88 155 178
242 326 106 179 186 270 335 381 68 50 245 149 267 149 4 0 19 -21 33 -47z"/>
<path d="M10733 2586 l-88 -104 -40 6 c-22 4 -107 6 -190 6 -184 -2 -298 -28
-450 -104 -334 -166 -548 -497 -595 -921 -28 -251 30 -469 162 -614 130 -141
305 -205 565 -205 463 0 821 254 990 700 72 190 103 488 69 655 -26 128 -74
216 -165 306 l-78 77 89 103 c50 57 108 125 130 152 l40 47 -175 0 -175 0 -89
-104z m-171 -499 c103 -50 148 -146 148 -313 0 -159 -44 -321 -127 -464 -52
-88 -173 -210 -243 -242 -208 -97 -420 -33 -490 148 -33 82 -33 241 -2 368 43
174 151 357 256 436 109 81 170 100 306 97 81 -2 104 -7 152 -30z"/>
<path d="M5040 2493 c-82 -9 -212 -48 -298 -89 -164 -79 -280 -218 -318 -380
-24 -103 -16 -232 20 -306 51 -107 187 -204 361 -258 315 -97 357 -116 390
-179 35 -68 11 -153 -57 -203 -66 -50 -183 -68 -306 -49 -139 22 -199 76 -209
190 l-6 61 -230 0 -230 0 6 -99 c16 -266 158 -435 427 -508 102 -28 414 -25
532 4 285 72 475 236 533 459 21 83 19 198 -5 277 -54 174 -202 279 -525 373
-229 66 -255 83 -255 164 0 101 82 161 229 168 154 7 230 -33 251 -134 l11
-54 224 0 223 0 7 31 c4 16 4 58 0 92 -30 260 -178 392 -490 437 -67 9 -212
11 -285 3z"/>
<path d="M6165 1579 c-313 -484 -574 -887 -578 -895 -7 -12 27 -14 230 -14
l239 0 113 175 113 175 309 0 309 0 0 -77 c0 -43 3 -122 7 -175 l6 -98 228 0
229 0 -6 43 c-2 23 -38 407 -79 852 -41 446 -77 829 -80 853 l-6 42 -232 0
-232 -1 -570 -880z m700 -18 l7 -241 -207 0 -207 0 25 43 c13 23 100 175 193
337 l169 295 6 -96 c4 -53 10 -205 14 -338z"/>
<path d="M7770 1644 c-124 -450 -235 -853 -247 -897 l-21 -79 521 5 c494 4
527 5 622 26 323 72 512 241 562 502 35 184 -38 353 -172 405 -43 16 -52 34
-17 34 31 0 136 57 182 98 98 87 156 244 148 396 -7 131 -54 208 -159 262
-110 55 -132 57 -684 61 l-510 4 -225 -817z m999 445 c31 -6 63 -22 81 -39 27
-25 30 -35 30 -85 0 -94 -40 -152 -129 -186 -49 -19 -82 -22 -273 -27 -181 -4
-218 -2 -218 9 0 11 61 238 86 322 5 15 23 17 189 17 101 0 207 -5 234 -11z
m-104 -669 c71 -36 90 -67 90 -148 -1 -112 -55 -184 -162 -219 -61 -20 -533
-32 -533 -14 0 6 20 82 44 169 24 86 49 177 56 201 l11 43 222 -4 c212 -3 224
-5 272 -28z"/>
</g>
</svg>
